<svg width="832" height="832" viewBox="0 0 832 832" fill="none" xmlns="http://www.w3.org/2000/svg">
<mask id="mask0_25_64" style="mask-type:luminance" maskUnits="userSpaceOnUse" x="0" y="0" width="832" height="832">
<path fill-rule="evenodd" clip-rule="evenodd" d="M832 259.119C832 249.242 832.004 239.364 831.943 229.486C831.894 221.165 831.798 212.846 831.572 204.529C831.083 186.402 830.014 168.119 826.79 150.194C823.52 132.01 818.181 115.086 809.767 98.5644C801.496 82.3253 790.691 67.4655 777.799 54.5826C764.91 41.6998 750.046 30.902 733.801 22.6356C717.263 14.2197 700.321 8.88238 682.117 5.61396C664.19 2.39502 645.902 1.32776 627.775 0.838055C619.452 0.612891 611.129 0.517979 602.804 0.466484C592.921 0.405901 583.038 0.41095 573.155 0.41095L458.404 0H372.58L259.86 0.41095C249.958 0.41095 240.055 0.405901 230.153 0.466484C221.811 0.517979 213.473 0.612891 205.134 0.838055C186.964 1.32776 168.635 2.39603 150.666 5.61901C132.437 8.88641 115.47 14.2217 98.9093 22.6315C82.6299 30.899 67.7338 41.6978 54.8177 54.5826C41.9036 67.4645 31.0786 82.3213 22.792 98.5573C14.3549 115.087 9.00553 132.021 5.72804 150.215C2.50103 168.133 1.43176 186.41 0.940032 204.529C0.715878 212.847 0.618947 221.166 0.568462 229.486C0.50788 239.365 0 251.636 0 261.514L0.0030291 372.672L0 459.416L0.512928 572.936C0.512928 582.827 0.508889 592.718 0.568462 602.609C0.618947 610.941 0.715878 619.271 0.941042 627.6C1.43176 645.751 2.50305 664.06 5.73308 682.009C9.00956 700.217 14.358 717.165 22.7879 733.708C31.0756 749.971 41.9026 764.85 54.8177 777.751C67.7328 790.652 82.6249 801.464 98.9012 809.742C115.472 818.169 132.448 823.513 150.687 826.786C168.648 830.01 186.971 831.079 205.134 831.569C213.473 831.794 221.812 831.89 230.154 831.94C240.056 832.001 249.958 831.997 259.86 831.997L373.599 832H459.636L573.155 831.996C583.038 831.996 592.921 832.001 602.804 831.94C611.129 831.89 619.452 831.794 627.775 831.569C645.909 831.078 664.203 830.008 682.138 826.782C700.331 823.509 717.264 818.167 733.794 809.745C750.042 801.468 764.909 790.654 777.799 777.751C790.689 764.852 801.493 749.975 809.764 733.715C818.183 717.164 823.522 700.208 826.794 681.988C830.015 664.046 831.083 645.744 831.573 627.6C831.798 619.27 831.894 610.94 831.943 602.609C832.005 592.718 832 582.827 832 572.936C832 572.936 831.994 461.42 831.994 459.416V372.581C831.994 371.101 832 259.119 832 259.119Z" fill="white"/>
</mask>
<g mask="url(#mask0_25_64)">
<rect width="832" height="832" transform="translate(0.34375 -0.236816)" fill="white"/>
<g clip-path="url(#clip0_25_64)">
<path fill-rule="evenodd" clip-rule="evenodd" d="M639.735 153.299C586.061 134.799 568.617 222.972 614.911 238.829C667.243 256.608 696.316 172.999 639.735 153.299ZM643.537 249.4C643.537 267.9 646.444 330.606 641.748 343.099C637.051 355.833 634.144 338.294 634.591 382.981C635.038 439.441 639.064 584.314 631.684 618.671H625.645C614.463 567.016 626.987 398.358 622.738 360.878C620.725 343.58 619.383 353.911 615.581 343.099C610.885 330.606 613.792 267.9 613.792 249.4C604.176 244.355 598.585 244.835 586.508 227.777C567.051 200.388 575.326 141.286 631.684 141.286C674.623 141.286 711.524 214.323 643.537 249.4Z" fill="black"/>
<path fill-rule="evenodd" clip-rule="evenodd" d="M737.69 389.468C703.696 380.098 707.722 370.008 708.617 456.259C708.84 479.563 711.3 474.038 701.907 487.252C692.291 500.946 697.658 499.505 697.882 513.68L696.764 618.671C684.687 615.067 687.594 617.71 687.818 580.47L688.042 503.829C687.147 465.869 678.872 517.043 678.872 437.279C679.096 389.228 670.821 319.554 737.466 300.334L737.69 389.468Z" fill="black"/>
<path fill-rule="evenodd" clip-rule="evenodd" d="M658.073 204.953C648.904 244.835 587.626 231.862 599.479 186.934C609.99 147.292 668.361 161.707 658.073 204.953Z" fill="black"/>
<path fill-rule="evenodd" clip-rule="evenodd" d="M743.952 392.592V297.211C749.543 294.328 747.754 294.808 756.029 294.087C773.473 329.405 773.473 360.398 756.029 395.715L743.952 392.592Z" fill="black"/>
<path fill-rule="evenodd" clip-rule="evenodd" d="M475.805 528.575C476.029 526.173 474.911 526.413 473.121 523.77C471.78 521.608 472.898 522.088 470.661 518.725C468.201 515.602 465.518 512.719 463.505 508.874C462.163 505.991 462.834 506.232 461.268 504.31C459.256 502.147 457.914 501.427 456.796 499.024C452.994 490.855 448.073 487.972 445.837 484.128C440.47 474.518 439.128 475.479 435.326 468.752C432.642 464.427 429.511 461.544 425.038 453.856C422.578 449.772 419.671 449.051 416.316 441.603C414.751 438.48 409.831 434.156 406.923 428.87C405.134 425.747 402.003 421.903 399.767 419.02C395.518 413.494 399.543 416.617 393.281 408.929C388.137 402.682 389.256 403.163 386.348 399.078C384.112 395.955 380.534 392.111 378.297 388.747C374.048 382.501 368.233 375.774 366.891 373.611C365.326 371.209 365.997 371.209 363.984 368.566C361.971 365.923 357.946 361.359 356.157 358.716C352.802 353.19 356.827 358.235 349.895 348.865L335.358 328.684C333.121 324.84 331.109 323.158 327.978 319.074C325.965 316.191 325.965 314.509 321.268 308.983C318.361 305.379 315.454 302.016 313.441 298.893L306.284 288.802C303.377 285.198 303.153 282.555 300.022 278.951C294.208 272.705 296.668 275.588 292.419 269.101L277.434 248.92C275.422 246.277 271.396 241.712 269.831 239.069C267.147 234.504 261.78 228.979 258.425 223.933C254.399 217.927 251.716 209.278 247.019 215.765L267.594 246.037C269.831 249.16 271.843 252.764 274.304 256.127C275.422 257.809 276.093 259.971 276.987 261.413C278.329 263.335 280.118 264.776 281.46 266.698C283.92 269.822 282.131 269.101 288.169 276.789C290.853 280.393 291.524 283.036 294.879 286.88C297.786 290.484 300.022 293.367 301.811 297.211C303.824 300.815 307.179 303.938 309.415 307.542L323.728 328.203C324.847 329.885 323.728 330.366 325.518 333.009C328.201 336.853 330.438 338.294 332.898 343.339C336.7 350.787 339.383 350.307 344.08 358.716C346.316 362.32 349.671 365.203 351.684 368.806C356.604 377.696 355.709 374.332 358.84 379.137C361.3 382.741 362.642 385.384 365.102 388.988C366.668 390.91 368.01 392.111 368.904 394.033C373.377 402.682 375.837 402.682 377.179 406.767C379.415 413.013 384.335 414.455 386.348 419.74C387.243 421.662 386.572 421.903 388.808 424.545L395.07 431.993C398.425 436.798 393.728 432.954 400.214 439.922C403.792 443.766 406.029 446.168 408.042 450.253C410.502 454.817 413.185 456.499 416.093 460.583C418.329 463.707 419.671 467.07 422.802 470.674C430.853 480.044 426.38 474.999 430.182 481.005C432.195 484.369 435.997 487.972 438.01 491.336C442.93 499.745 439.799 494.459 445.166 501.427C447.403 504.55 455.677 515.602 456.572 518.485C458.137 523.77 463.952 528.575 467.53 532.419C472.227 537.224 475.805 528.575 475.805 528.575Z" fill="#A9C5D2"/>
<path fill-rule="evenodd" clip-rule="evenodd" d="M532.387 617.71C533.952 618.911 538.649 618.911 539.99 616.749C541.332 614.586 541.109 583.353 541.109 578.548L540.661 539.387C540.885 536.504 540.885 533.861 540.885 531.458L540.661 461.304C540.214 449.772 541.109 438.24 540.214 426.467L540.661 403.163C540.661 403.163 540.661 402.922 540.661 402.682C540.661 401.721 540.661 400.039 540.438 398.838C539.99 394.994 539.99 394.514 539.99 391.15L539.767 336.612C539.32 331.327 539.767 326.281 539.99 321.236C539.99 317.392 539.32 316.431 539.32 313.068C539.543 309.944 539.767 308.022 539.543 305.139L539.096 297.211C539.096 296.97 539.096 296.73 539.096 296.73L538.649 261.893C538.649 261.653 538.649 261.413 538.649 261.413C538.649 256.368 539.096 251.322 538.872 246.517C538.872 246.277 538.649 245.796 538.649 245.556L538.201 211.68C538.201 207.356 537.083 197.025 537.307 196.064C538.425 184.772 537.307 172.038 536.859 160.746C536.636 153.779 536.636 126.39 535.965 121.345C535.741 118.942 535.741 119.663 534.176 117.261C530.597 120.624 531.939 120.384 531.939 124.468L531.268 171.558C531.268 174.201 530.821 176.844 530.821 179.246C530.821 179.967 530.821 180.447 530.821 180.928L531.045 218.167C531.492 227.777 530.15 237.628 530.597 247.478C530.821 251.082 530.15 253.244 530.374 257.329V300.574C529.703 308.503 530.598 326.762 530.15 337.333L530.821 433.194C530.597 434.396 530.374 435.597 530.374 437.039C530.374 440.162 530.821 442.324 530.821 445.207C530.597 450.253 529.927 456.019 530.597 461.064C531.045 465.148 531.268 468.752 530.597 472.356C529.703 479.323 531.045 485.33 530.597 492.297L530.821 539.146C530.821 542.03 530.821 543.952 530.597 547.075C530.374 551.64 531.716 555.003 531.268 559.328L531.716 576.386C531.939 585.275 531.492 586.957 531.492 593.924V613.625C531.492 616.508 530.821 614.826 532.387 617.71Z" fill="black"/>
<path fill-rule="evenodd" clip-rule="evenodd" d="M538.872 617.95C540.214 616.268 540.885 611.943 539.543 610.262C537.307 607.619 525.006 608.82 521.428 608.58C519.863 608.58 519.415 608.099 517.626 608.099C514.943 608.099 512.93 608.34 510.022 608.099L503.09 607.859C497.946 608.58 500.182 608.58 495.709 608.34H466.189C463.952 608.34 464.847 608.34 462.387 608.099H451.205C449.863 608.099 451.652 608.099 449.863 608.099H448.744C448.744 608.099 448.521 608.099 448.297 608.099L436.668 607.619C429.288 607.379 396.636 606.658 392.163 607.619C389.927 608.099 388.361 607.619 388.137 607.619L381.652 607.859C380.086 607.859 381.204 607.859 379.639 607.619C379.415 607.619 379.415 607.619 379.192 607.619H362.642C360.853 607.619 361.077 607.619 359.511 607.619C357.498 607.379 359.288 607.379 357.498 607.619C355.933 607.619 357.498 607.619 355.709 607.619H354.367C354.144 607.619 353.92 607.619 353.92 607.619L333.121 607.138C321.939 606.898 300.917 606.898 289.288 607.379L208.776 607.138C202.962 607.619 196.252 607.138 189.99 606.898L177.914 607.138C173.217 607.379 169.192 607.859 164.495 607.619C160.917 607.379 160.022 607.859 156.891 607.859L134.974 608.099C133.409 608.34 132.962 608.34 131.396 608.34L126.252 608.58C126.029 608.58 125.805 608.58 125.805 608.58L113.058 608.34C110.821 608.34 111.268 608.34 109.256 608.82L79.9585 608.58C76.8275 608.58 70.1182 607.619 69.2237 610.502C68.1054 613.385 72.5783 613.625 74.3674 613.385C75.7093 613.145 77.2748 612.904 77.9457 612.904L103.441 613.865C105.901 613.865 108.361 613.865 110.821 614.106C111.716 614.106 114.176 614.586 114.623 614.586L122.227 614.346C130.502 615.307 139.447 614.586 147.946 615.067C149.735 615.067 150.182 615.547 151.748 615.547C151.971 615.547 152.195 615.547 152.195 615.547H153.537C154.431 615.547 154.655 615.307 155.55 615.307C157.786 615.067 159.575 615.307 162.482 615.307C170.086 615.547 177.69 614.827 185.07 616.028L214.591 616.508C217.946 616.749 218.393 616.508 221.524 616.508C224.431 616.268 226.22 616.508 229.128 616.508L247.243 616.749C259.767 617.229 287.498 616.508 295.55 617.229C307.626 618.19 327.978 616.749 339.383 617.71C344.751 617.95 365.55 618.43 370.022 617.71L372.706 617.469C377.85 617.71 377.85 618.43 383.888 617.95C393.058 617.229 395.294 618.911 404.687 618.19H405.581C405.581 618.19 405.805 618.19 406.029 618.19L417.211 618.43C418.329 618.43 418.329 618.43 419.224 618.43H450.534C452.77 618.43 455.23 618.671 457.467 618.671L463.728 619.151C463.728 619.151 463.952 619.151 464.176 619.151C468.649 619.151 473.569 620.112 477.818 618.911C479.383 618.671 478.265 618.671 479.831 618.671C485.645 618.19 492.355 618.671 498.169 618.911L512.706 618.671C520.31 618.19 532.61 619.391 538.872 617.95Z" fill="black"/>
<path fill-rule="evenodd" clip-rule="evenodd" d="M506.22 513.439C507.339 512.959 508.233 512.238 509.351 511.758C511.588 511.037 511.141 511.998 513.153 509.115C512.259 505.511 510.022 503.108 509.351 499.024C509.128 497.583 509.575 498.063 509.128 496.622L505.102 486.05C504.879 485.089 504.208 484.128 503.984 483.167L490.789 446.649C489.447 443.525 491.013 444.967 489 441.363L462.387 368.566C461.045 364.962 458.808 361.599 458.137 357.995C457.466 355.833 457.019 354.872 456.348 352.709L448.744 332.048C447.85 329.645 447.626 329.165 446.284 326.522C444.943 324.359 445.837 325.08 444.942 322.918C444.719 321.717 444.719 322.197 444.272 321.236C442.482 317.152 440.693 306.821 436.444 300.094C434.655 297.691 433.313 291.204 431.971 287.841L423.026 264.296C421.684 258.77 419.224 254.205 417.882 248.439C417.658 247.238 418.105 247.959 417.211 246.277C416.987 245.796 416.764 245.556 416.54 245.076C413.856 239.31 412.291 233.063 409.383 227.537L405.581 216.966C404.463 214.323 405.134 214.563 403.792 211.921C402.45 209.278 402.674 209.038 401.78 206.635C400.885 204.713 400.885 203.752 399.99 201.59L395.965 191.019C393.281 186.213 392.834 181.168 392.387 180.447C391.045 177.564 389.479 178.525 390.597 175.162C389.032 173.24 388.361 172.759 387.69 170.597L379.415 148.974C378.521 146.812 377.179 142.727 375.613 140.325C370.022 142.007 373.377 145.611 374.719 149.935C375.166 151.136 374.942 151.377 375.39 152.818L378.521 161.708C378.968 163.149 379.192 163.149 379.639 164.591C380.534 166.513 379.639 165.552 380.534 167.714C381.652 170.597 383.217 173.48 383.888 176.363C384.112 179.006 388.585 189.096 389.032 191.019C390.821 198.707 394.399 206.875 396.859 214.563C397.53 216.726 398.201 218.648 399.096 220.57C403.121 229.94 406.029 242.673 410.725 252.524C411.396 253.725 411.173 254.446 411.396 255.647C411.843 256.608 412.291 257.569 412.738 258.53C413.633 260.692 412.738 259.491 413.409 261.413L415.869 267.66C416.54 268.861 417.211 274.387 419.447 279.192L423.473 290.484C426.38 297.211 430.853 310.665 432.866 316.912L435.997 326.041C437.339 328.684 436.891 329.165 438.457 331.807C440.246 334.21 440.693 337.333 441.588 340.216L444.719 349.346C445.166 350.787 444.943 350.307 445.613 352.229L448.744 361.118C449.639 365.683 453.888 375.774 456.125 381.059C456.796 382.741 456.348 382.501 457.019 384.423L463.728 401.961C464.847 405.085 465.07 407.728 466.189 410.611C466.859 412.052 467.307 412.292 467.978 413.734C468.649 415.175 469.99 418.299 470.438 419.74C470.885 421.662 470.438 420.942 471.332 422.623L474.24 431.272C474.911 435.117 478.712 439.201 479.607 443.045C479.607 443.285 479.831 444.006 479.831 444.246C480.278 445.447 480.054 444.967 480.725 445.928C481.843 448.571 481.173 447.129 481.62 449.051C481.843 450.012 481.396 448.811 482.067 450.253L483.633 455.058C484.08 456.019 484.751 456.739 485.198 457.7C485.869 459.622 485.198 458.902 485.869 460.824C486.316 462.025 486.987 462.505 487.434 463.707C488.105 465.389 487.211 464.427 488.329 466.83C490.118 471.395 488.776 469.233 489.895 472.116L492.578 478.362C493.92 480.525 493.696 481.726 494.367 483.888C495.038 486.531 495.486 487.252 496.38 489.894C497.722 492.777 498.169 495.901 499.511 498.544C501.524 502.388 500.182 501.427 501.524 504.31C503.089 508.154 503.313 510.797 506.22 513.439Z" fill="#A9C5D2"/>
<path fill-rule="evenodd" clip-rule="evenodd" d="M189.767 364.001L213.026 384.423C215.933 386.345 217.946 387.546 220.853 390.429C224.208 393.553 225.997 394.514 228.904 397.156C232.482 400.52 236.955 405.325 240.534 407.487C244.783 409.89 250.821 417.097 252.61 418.299C254.399 419.26 254.399 418.058 260.214 423.344C263.345 426.227 264.911 428.63 268.265 430.552C271.173 432.233 273.185 434.155 276.093 436.798L299.799 456.499C312.994 467.551 326.412 477.401 339.16 488.213L347.211 494.459C349.895 496.622 352.578 499.745 355.038 501.907C358.169 504.55 360.182 505.03 363.089 507.913C371.364 515.842 371.364 514.4 379.192 521.368C385.454 526.894 383.441 524.491 387.019 527.374C389.927 529.536 392.163 532.66 395.07 534.822C401.556 539.627 400.214 538.426 406.923 544.432C408.489 545.874 409.16 546.114 410.949 547.075L426.604 559.568C430.182 562.691 431.3 564.373 434.879 566.535C441.588 570.86 441.364 575.425 446.061 570.139C450.31 565.334 447.85 564.373 441.811 559.328L419 540.828C416.987 538.906 413.633 535.543 411.62 534.101L396.188 522.088C393.728 520.407 391.045 517.764 388.585 515.361L373.601 503.108C365.55 497.583 361.3 491.816 358.393 489.894L343.409 478.602C340.725 476.44 338.265 473.557 335.581 471.395C333.569 469.713 330.885 468.512 327.978 466.109L290.629 436.078C283.92 429.591 261.109 412.773 252.61 405.565C249.479 402.922 247.69 402.442 245.006 400.039C238.297 394.273 235.837 393.072 230.022 387.786C224.431 382.741 224.879 384.423 222.195 382.02C219.735 379.618 217.051 376.254 214.367 374.332C211.907 372.65 209.224 371.93 206.987 368.806L205.422 368.326C205.198 368.326 205.198 368.326 204.974 368.086C204.974 368.086 203.633 367.365 203.185 367.125C198.489 364.722 197.371 361.359 192.674 358.235C186.636 354.391 185.965 352.95 182.61 350.787C181.492 350.067 180.374 349.586 179.479 348.865C175.454 345.982 174.335 343.099 168.744 340.456L165.613 338.054C163.153 335.651 161.364 333.729 158.457 331.807C157.115 331.087 156.22 330.606 155.326 329.885C154.879 329.645 153.76 328.684 153.313 328.444C151.971 327.963 153.089 327.963 151.524 328.444C151.077 330.846 150.406 329.165 152.642 331.567C156.22 335.411 166.061 342.859 170.086 346.703C173.217 349.586 177.019 353.43 180.15 356.073C183.058 358.475 185.518 359.437 189.767 364.001Z" fill="#A9C5D2"/>
<path fill-rule="evenodd" clip-rule="evenodd" d="M96.0607 467.791C96.2844 468.272 95.3898 467.311 96.7317 468.752L102.77 472.116C103.665 472.356 104.559 472.596 105.454 472.836C106.348 473.317 106.796 473.797 107.69 474.278L112.387 476.44C114.847 477.882 117.53 478.122 119.767 479.564C120.885 480.044 121.109 480.284 122.227 480.765L132.291 485.33C133.409 486.05 133.856 486.05 134.974 486.531C138.553 488.213 149.288 493.738 151.748 494.219C155.55 495.18 160.693 497.102 164.048 499.264C166.508 500.466 176.125 504.069 178.808 505.991C181.716 507.673 185.741 509.115 188.649 510.556C190.661 511.517 189.543 510.797 191.109 511.277C192.227 511.758 192.451 512.238 193.792 512.478C198.489 513.92 203.856 517.043 208.553 518.965C209.447 519.446 209.895 519.446 210.789 519.926L223.313 524.971C225.102 525.692 226.22 526.653 228.01 527.134C230.022 527.614 230.917 528.575 232.93 529.056L257.53 540.108C258.649 540.588 258.872 540.828 259.767 541.309L262.451 542.27C263.792 542.991 264.911 544.192 266.029 544.672L276.987 548.997C278.105 549.477 278.553 549.718 279.447 549.958C282.578 550.919 286.38 553.562 289.511 554.283C291.524 555.003 292.419 555.964 294.431 556.205C297.339 556.685 308.521 561.971 311.652 563.652C316.572 566.055 321.045 567.977 326.412 569.659C328.425 570.139 329.543 571.581 331.556 572.061C334.463 573.263 338.265 573.743 340.949 575.185C342.067 575.905 342.291 576.146 343.409 576.626C346.093 577.827 348.776 577.827 350.789 579.029L353.249 579.99C354.591 580.47 353.92 580.23 355.486 581.191C357.722 582.632 358.169 581.912 360.406 583.593C363.313 585.275 366.444 585.275 369.128 586.957C371.588 588.158 370.022 586.957 373.824 588.879C375.39 589.6 376.061 589.119 377.626 590.08C380.086 591.762 380.534 591.282 382.546 592.483C387.467 595.126 393.952 596.807 397.307 598.73L402.451 600.892C404.24 601.613 403.792 601.132 405.134 601.853C407.594 603.054 407.818 604.015 410.502 603.054C411.62 601.372 411.844 598.729 411.396 597.048C410.278 593.684 404.016 592.483 400.885 591.041C399.543 590.561 399.096 590.561 398.201 590.321C397.083 589.6 396.859 589.119 395.518 588.639C393.281 587.678 395.07 588.879 392.834 587.918L368.457 577.347C365.773 575.905 363.09 575.425 360.406 574.224C359.288 573.743 357.722 572.542 356.157 572.061C353.92 571.581 349.895 568.938 346.987 567.737L341.62 566.295C340.725 565.574 340.054 565.094 338.936 564.613C338.265 564.373 336.476 563.652 336.252 563.652C335.805 563.652 335.358 563.172 334.911 563.172L330.438 560.529C329.096 561.01 330.661 561.49 328.649 560.769C325.965 559.808 318.361 555.243 315.677 554.763C310.981 553.802 313.888 553.321 309.863 551.88C307.403 550.919 305.166 550.198 302.482 548.757L287.722 542.51C286.604 542.03 285.486 541.789 284.144 541.309C282.355 540.588 281.907 540.588 280.566 539.867L278.329 538.906C274.974 537.945 273.633 536.023 269.383 535.062L262.003 532.179C259.99 530.978 259.99 531.218 258.201 530.257C256.189 529.296 253.058 527.855 250.821 527.134C248.585 526.413 245.901 525.212 243.441 524.491C240.981 523.53 242.546 525.212 239.863 523.53C238.968 523.049 239.192 522.809 238.297 522.329C236.284 521.368 237.403 522.329 236.061 521.608C234.719 521.127 234.048 520.407 232.482 519.926C230.47 519.205 230.47 518.485 228.681 517.764L221.3 515.121C220.629 514.881 220.182 514.641 219.735 514.4C218.617 513.92 218.617 514.16 217.498 513.68L206.54 508.634C204.527 507.673 205.198 508.394 202.738 507.433L184.399 499.985C181.716 498.063 183.058 499.505 180.597 498.544C179.927 498.303 179.703 498.063 179.032 497.583C177.914 497.102 177.914 497.342 177.019 497.102C175.006 496.381 175.454 496.141 173.217 495.661C171.204 495.18 169.863 494.459 167.85 493.498L151.077 486.771C149.064 486.291 149.288 486.05 147.498 485.33C144.144 484.128 139.224 482.927 136.54 481.245C134.527 480.044 134.751 479.323 132.738 479.083L123.569 475.719C122.674 475.239 122.451 474.999 121.556 474.758L103.217 468.031C100.534 467.311 97.6262 464.428 96.0607 467.791Z" fill="#A9C5D2"/>
<path fill-rule="evenodd" clip-rule="evenodd" d="M325.294 411.812L447.403 542.991C453.217 549.237 452.77 548.036 455.901 543.711C457.243 542.03 458.137 540.828 458.585 539.146C446.732 525.212 426.38 506.952 412.514 491.336L372.259 448.811C370.47 447.369 368.681 445.928 367.115 444.727L318.361 395.475C316.796 393.793 315.23 391.631 313.217 390.429C310.757 388.748 309.639 388.267 308.521 389.949C306.508 393.312 312.323 397.637 315.006 400.76C318.361 404.364 321.939 407.968 325.294 411.812Z" fill="#C08E89"/>
<path fill-rule="evenodd" clip-rule="evenodd" d="M432.419 596.087C434.431 594.405 435.55 592.723 436.22 590.321C437.115 587.438 435.55 586.236 432.866 585.275C429.288 583.834 430.182 583.353 427.051 581.191C424.591 579.749 427.275 582.152 421.013 578.068C419.671 577.107 419.671 577.347 418.105 576.626C417.435 576.146 416.093 575.425 415.422 574.944C412.738 573.263 412.067 573.022 409.383 571.1C406.7 569.178 406.029 569.899 403.569 568.458L385.901 556.685C382.099 554.763 385.677 557.406 380.086 553.321C378.074 551.88 376.732 551.88 374.272 550.438C370.693 548.276 365.997 546.354 362.419 543.711C361.077 542.75 360.853 542.27 359.511 541.789C356.157 540.348 359.288 542.75 353.92 539.146L333.121 526.413C331.332 525.692 331.78 526.173 330.214 525.212C329.32 524.731 328.425 524.01 327.307 523.29C322.834 520.647 312.994 516.082 309.639 513.439C305.166 510.076 307.179 512.478 303.824 510.316C302.93 509.836 302.035 509.115 300.917 508.394C299.799 507.914 299.128 507.673 297.786 506.952C293.537 504.069 296.22 504.55 292.195 503.349L274.527 494.219C272.067 493.018 270.949 491.336 268.712 490.375C267.147 489.654 267.594 490.135 265.805 488.933C261.109 486.531 252.834 480.284 251.716 484.369C251.045 487.732 260.438 491.336 262.227 492.777L274.08 499.505C276.54 500.466 277.211 502.147 279.895 503.589C282.578 505.03 283.473 506.232 285.709 507.673C288.169 509.115 289.064 508.874 291.524 510.797C294.655 513.439 294.879 512.478 297.562 514.4C302.259 517.764 302.259 517.043 306.284 520.166C308.968 522.088 307.626 520.887 309.415 521.368L320.821 528.816C323.505 530.497 323.952 529.777 326.636 532.179C330.438 535.302 330.214 533.861 332.674 535.543C334.016 536.263 334.463 536.984 335.582 537.705C338.265 539.387 336.476 537.945 338.489 538.906C340.054 539.867 342.514 542.27 344.527 543.471C349.224 545.874 348.553 546.114 350.342 547.075C352.355 548.276 351.684 547.315 353.249 548.276C354.367 548.997 355.038 549.718 356.157 550.679L364.879 555.244C366.668 555.964 365.773 555.484 367.786 557.166C368.904 557.886 369.575 558.607 370.693 559.328C372.035 560.289 372.706 560.289 373.824 561.01C375.837 561.971 377.626 564.133 379.639 565.334C380.981 565.815 381.205 565.574 382.546 566.535C383.888 567.256 384.335 567.737 385.454 568.698L397.307 575.425C399.096 576.386 401.556 577.347 403.121 578.548C406.252 580.951 406.029 580.951 409.16 582.632C415.869 585.996 418.105 588.639 421.013 590.321C421.907 590.801 422.578 590.801 423.92 591.522C427.722 593.924 423.249 592.483 429.735 594.645C430.853 595.126 431.3 595.606 432.419 596.087Z" fill="#C08E89"/>
<path fill-rule="evenodd" clip-rule="evenodd" d="M522.546 494.219C523.441 496.381 525.901 506.712 526.572 509.595C526.796 511.277 527.466 511.758 527.69 513.199C527.914 514.16 527.914 513.92 527.914 515.121L529.927 524.491C531.716 526.413 538.425 524.731 537.083 518.004L531.045 493.018C530.821 491.576 531.045 491.336 530.597 489.894C529.032 484.609 528.137 483.167 528.808 480.044C527.69 477.641 529.479 480.284 527.69 475.479C527.019 473.557 527.466 474.278 526.796 472.596C525.454 468.512 525.23 463.707 523.665 458.902L513.601 418.299C512.706 416.136 513.153 417.338 512.482 415.416C512.035 413.013 512.035 412.052 511.364 409.89L505.997 388.267C503.313 377.936 498.617 357.514 496.157 350.067L492.131 333.97C491.013 328.684 488.776 324.359 487.882 317.392C487.882 316.431 486.093 308.983 484.974 308.022C482.738 305.379 487.435 309.464 483.856 307.301C483.409 306.821 480.725 307.061 481.843 311.866L486.987 335.411C487.435 338.054 487.882 339.015 488.329 341.417C488.553 343.34 489.224 345.502 489.671 347.424L495.709 375.293C495.933 376.254 495.933 376.495 496.157 376.975L497.275 382.741C497.722 384.903 497.498 386.825 498.169 388.748L505.55 420.701C506.22 424.065 506.444 422.383 506.891 426.467C506.891 427.909 507.115 428.149 507.562 429.591C508.01 431.753 508.233 433.675 508.904 435.597L510.022 441.363C510.693 443.766 511.141 445.207 511.364 447.369C512.035 451.454 513.601 455.538 514.048 459.622L514.272 460.343C514.272 461.544 514.272 461.064 514.495 461.785C515.39 463.947 515.837 464.187 516.508 467.791L521.204 488.693C521.875 490.855 522.323 492.777 522.546 494.219Z" fill="black"/>
<path fill-rule="evenodd" clip-rule="evenodd" d="M432.419 428.63C433.984 430.552 434.431 432.474 435.55 434.396L442.259 446.168C445.166 451.934 447.85 458.902 451.205 463.947C456.572 472.836 452.546 467.07 457.467 475.719L466.189 493.498C467.083 495.18 468.649 497.342 469.767 499.264L480.054 517.043C482.067 521.608 484.08 526.173 490.118 518.244L486.54 510.316C484.527 506.472 484.08 507.673 481.843 502.147L477.594 493.738C476.476 492.057 475.805 491.336 474.911 489.654C473.569 487.972 473.792 487.492 472.898 485.57C472.227 483.648 471.332 483.167 470.214 481.486C469.32 479.804 469.543 479.083 468.201 477.161C467.53 475.719 466.412 474.758 465.741 473.317C464.623 470.914 465.518 471.635 463.728 468.752C460.374 464.187 456.796 454.817 454.783 452.175C449.639 446.168 453.665 450.253 449.863 444.006C448.968 442.324 448.744 441.603 448.074 440.162C447.403 438.48 446.732 437.279 446.061 435.837C443.824 431.993 440.47 426.708 439.351 423.584C438.457 421.422 438.01 421.422 436.891 419.26C434.879 415.896 437.115 417.818 432.195 411.091C431.077 409.409 430.853 408.448 430.182 407.247L423.026 394.514C422.131 393.072 421.907 391.871 421.236 390.67C420.566 389.228 419.224 387.546 418.776 386.825C415.645 382.981 412.738 375.534 409.383 371.209C407.147 367.845 407.818 366.884 405.582 363.761C400.661 356.553 403.792 361.118 401.556 356.313L387.467 331.807C387.019 331.087 387.019 330.846 386.572 330.126C385.23 327.963 384.336 327.483 382.77 327.242L416.764 396.916C417.658 399.799 419.224 400.28 420.118 403.403C421.46 407.487 426.604 414.935 428.169 419.02C429.288 421.903 432.642 424.545 432.419 428.63Z" fill="#C08E89"/>
<path fill-rule="evenodd" clip-rule="evenodd" d="M531.268 540.588C507.562 537.705 458.808 574.704 465.965 606.658C466.636 607.619 467.307 609.06 467.307 610.502C467.754 614.106 465.07 617.71 461.492 617.95C432.195 617.71 473.792 519.686 534.399 526.893C537.754 527.855 539.99 531.699 539.096 535.302C538.201 539.146 534.847 541.309 531.268 540.588Z" fill="black"/>
<path d="M68.9694 690.612L85.5375 653.44H94.034L110.655 690.612H101.628L88.0333 657.794H91.4319L77.7845 690.612H68.9694ZM77.2534 682.646L79.5369 676.115H98.6539L100.99 682.646H77.2534ZM130.249 691.249C124.974 691.249 120.85 689.78 117.876 686.841C114.902 683.903 113.415 679.708 113.415 674.256V653.44H122.018V673.937C122.018 677.477 122.744 680.026 124.195 681.584C125.647 683.142 127.682 683.921 130.302 683.921C132.922 683.921 134.957 683.142 136.409 681.584C137.86 680.026 138.586 677.477 138.586 673.937V653.44H147.082V674.256C147.082 679.708 145.596 683.903 142.622 686.841C139.648 689.78 135.524 691.249 130.249 691.249ZM155.584 690.612V653.44H172.47C176.506 653.44 180.064 654.218 183.144 655.776C186.224 657.298 188.631 659.44 190.366 662.202C192.101 664.963 192.968 668.238 192.968 672.026C192.968 675.778 192.101 679.053 190.366 681.85C188.631 684.611 186.224 686.77 183.144 688.328C180.064 689.85 176.506 690.612 172.47 690.612H155.584ZM164.186 683.549H172.045C174.524 683.549 176.665 683.089 178.471 682.168C180.312 681.212 181.728 679.867 182.719 678.132C183.746 676.398 184.259 674.362 184.259 672.026C184.259 669.654 183.746 667.618 182.719 665.919C181.728 664.184 180.312 662.856 178.471 661.936C176.665 660.98 174.524 660.502 172.045 660.502H164.186V683.549ZM199.456 690.612V653.44H208.058V690.612H199.456ZM234.935 691.249C231.997 691.249 229.271 690.771 226.757 689.815C224.279 688.859 222.119 687.514 220.279 685.779C218.473 684.045 217.057 682.009 216.03 679.672C215.039 677.336 214.543 674.787 214.543 672.026C214.543 669.264 215.039 666.715 216.03 664.379C217.057 662.042 218.491 660.007 220.332 658.272C222.173 656.537 224.332 655.192 226.81 654.236C229.288 653.28 231.979 652.802 234.882 652.802C237.82 652.802 240.511 653.28 242.954 654.236C245.432 655.192 247.573 656.537 249.379 658.272C251.22 660.007 252.654 662.042 253.68 664.379C254.707 666.68 255.22 669.229 255.22 672.026C255.22 674.787 254.707 677.354 253.68 679.726C252.654 682.062 251.22 684.098 249.379 685.832C247.573 687.532 245.432 688.859 242.954 689.815C240.511 690.771 237.838 691.249 234.935 691.249ZM234.882 683.921C236.546 683.921 238.068 683.637 239.449 683.071C240.865 682.505 242.104 681.69 243.166 680.628C244.228 679.566 245.042 678.309 245.609 676.858C246.21 675.406 246.511 673.796 246.511 672.026C246.511 670.255 246.21 668.645 245.609 667.193C245.042 665.742 244.228 664.485 243.166 663.423C242.139 662.361 240.918 661.547 239.502 660.98C238.086 660.414 236.546 660.131 234.882 660.131C233.218 660.131 231.678 660.414 230.262 660.98C228.881 661.547 227.66 662.361 226.598 663.423C225.536 664.485 224.704 665.742 224.102 667.193C223.536 668.645 223.252 670.255 223.252 672.026C223.252 673.76 223.536 675.371 224.102 676.858C224.704 678.309 225.518 679.566 226.545 680.628C227.607 681.69 228.846 682.505 230.262 683.071C231.678 683.637 233.218 683.921 234.882 683.921Z" fill="#C08E89"/>
<path d="M276.408 689V651.828H283.523L299.348 678.061H295.578L311.137 651.828H318.2L318.306 689H310.234L310.181 664.201H311.668L299.242 685.07H295.365L282.674 664.201H284.479V689H276.408ZM322.239 689L338.808 651.828H347.304L363.925 689H354.898L341.303 656.182H344.702L331.055 689H322.239ZM330.524 681.035L332.807 674.503H351.924L354.261 681.035H330.524ZM385.212 689.637C382.274 689.637 379.565 689.177 377.087 688.257C374.645 687.301 372.503 685.955 370.662 684.221C368.856 682.486 367.44 680.45 366.414 678.114C365.422 675.777 364.927 673.211 364.927 670.414C364.927 667.617 365.422 665.051 366.414 662.714C367.44 660.378 368.874 658.342 370.715 656.607C372.556 654.873 374.715 653.545 377.193 652.625C379.672 651.669 382.398 651.191 385.371 651.191C388.664 651.191 391.62 651.74 394.24 652.837C396.895 653.934 399.125 655.528 400.93 657.616L395.408 662.714C394.063 661.298 392.593 660.254 391 659.581C389.407 658.873 387.672 658.519 385.796 658.519C383.991 658.519 382.344 658.802 380.858 659.369C379.371 659.935 378.079 660.749 376.981 661.811C375.919 662.873 375.087 664.13 374.485 665.582C373.919 667.033 373.636 668.644 373.636 670.414C373.636 672.149 373.919 673.742 374.485 675.193C375.087 676.645 375.919 677.919 376.981 679.017C378.079 680.079 379.353 680.893 380.804 681.459C382.291 682.026 383.92 682.309 385.69 682.309C387.389 682.309 389.035 682.044 390.629 681.513C392.257 680.946 393.832 680.008 395.355 678.698L400.24 684.911C398.222 686.433 395.868 687.602 393.177 688.416C390.522 689.23 387.867 689.637 385.212 689.637ZM392.381 683.796V669.83H400.24V684.911L392.381 683.796ZM408.231 689V651.828H416.834V689H408.231ZM437.869 689.637C434.896 689.637 432.046 689.248 429.32 688.469C426.594 687.655 424.399 686.61 422.735 685.336L425.656 678.857C427.249 679.99 429.125 680.928 431.285 681.672C433.48 682.38 435.692 682.734 437.922 682.734C439.622 682.734 440.985 682.575 442.011 682.256C443.073 681.902 443.852 681.424 444.348 680.822C444.844 680.22 445.091 679.53 445.091 678.751C445.091 677.76 444.702 676.981 443.923 676.415C443.144 675.813 442.118 675.335 440.843 674.981C439.569 674.591 438.153 674.237 436.595 673.919C435.073 673.565 433.533 673.14 431.975 672.644C430.453 672.149 429.054 671.511 427.78 670.733C426.505 669.954 425.461 668.927 424.647 667.653C423.868 666.378 423.478 664.75 423.478 662.767C423.478 660.643 424.045 658.714 425.178 656.979C426.346 655.209 428.081 653.811 430.382 652.784C432.718 651.722 435.639 651.191 439.144 651.191C441.48 651.191 443.781 651.474 446.047 652.04C448.313 652.571 450.313 653.386 452.048 654.483L449.393 661.015C447.658 660.024 445.923 659.298 444.189 658.838C442.454 658.342 440.755 658.094 439.091 658.094C437.427 658.094 436.064 658.289 435.002 658.678C433.94 659.068 433.179 659.581 432.718 660.218C432.258 660.82 432.028 661.528 432.028 662.342C432.028 663.298 432.417 664.077 433.196 664.679C433.975 665.245 435.002 665.706 436.276 666.06C437.551 666.414 438.949 666.768 440.471 667.122C442.029 667.476 443.569 667.883 445.091 668.343C446.649 668.803 448.065 669.423 449.34 670.202C450.614 670.98 451.641 672.007 452.42 673.282C453.234 674.556 453.641 676.167 453.641 678.114C453.641 680.203 453.057 682.114 451.889 683.849C450.72 685.584 448.968 686.982 446.631 688.044C444.33 689.106 441.41 689.637 437.869 689.637ZM466.7 689V658.838H454.805V651.828H487.198V658.838H475.303V689H466.7ZM499.739 666.803H517.635V673.494H499.739V666.803ZM500.376 682.097H520.609V689H491.827V651.828H519.918V658.731H500.376V682.097ZM527.453 689V651.828H543.544C546.871 651.828 549.739 652.377 552.146 653.474C554.554 654.536 556.412 656.076 557.722 658.094C559.032 660.112 559.687 662.519 559.687 665.316C559.687 668.077 559.032 670.467 557.722 672.485C556.412 674.468 554.554 675.99 552.146 677.052C549.739 678.114 546.871 678.645 543.544 678.645H532.233L536.056 674.875V689H527.453ZM551.084 689L541.791 675.512H550.978L560.377 689H551.084ZM536.056 675.831L532.233 671.795H543.066C545.721 671.795 547.703 671.228 549.013 670.095C550.323 668.927 550.978 667.334 550.978 665.316C550.978 663.263 550.323 661.67 549.013 660.537C547.703 659.404 545.721 658.838 543.066 658.838H532.233L536.056 654.749V675.831Z" fill="#A9C5D2"/>
</g>
<g style="mix-blend-mode:screen" filter="url(#filter0_i_25_64)">
<path fill-rule="evenodd" clip-rule="evenodd" d="M832.344 259.119C832.344 249.242 832.348 239.364 832.287 229.486C832.238 221.165 832.142 212.846 831.916 204.529C831.427 186.402 830.358 168.119 827.134 150.194C823.864 132.01 818.525 115.086 810.111 98.5644C801.84 82.3253 791.035 67.4655 778.143 54.5826C765.254 41.6998 750.39 30.902 734.145 22.6356C717.606 14.2197 700.664 8.88238 682.461 5.61396C664.533 2.39502 646.246 1.32776 628.118 0.838055C619.796 0.612891 611.473 0.517979 603.148 0.466484C593.265 0.405901 583.382 0.41095 573.499 0.41095L458.748 0H372.924L260.203 0.41095C250.301 0.41095 240.399 0.405901 230.497 0.466484C222.155 0.517979 213.817 0.612891 205.478 0.838055C187.308 1.32776 168.979 2.39603 151.009 5.61901C132.781 8.88641 115.814 14.2217 99.2531 22.6315C82.9737 30.899 68.0775 41.6978 55.1614 54.5826C42.2474 67.4645 31.4224 82.3213 23.1357 98.5573C14.6987 115.087 9.34928 132.021 6.07179 150.215C2.84478 168.133 1.77551 186.41 1.28378 204.529C1.05963 212.847 0.962697 221.166 0.912212 229.486C0.85163 239.365 0.34375 251.636 0.34375 261.514L0.346779 372.672L0.34375 459.416L0.856678 572.936C0.856678 582.827 0.852639 592.718 0.912212 602.609C0.962697 610.941 1.05963 619.271 1.28479 627.6C1.77551 645.751 2.8468 664.06 6.07683 682.009C9.35331 700.217 14.7017 717.165 23.1317 733.708C31.4193 749.971 42.2464 764.85 55.1614 777.751C68.0765 790.652 82.9686 801.464 99.245 809.742C115.816 818.169 132.791 823.513 151.031 826.786C168.992 830.01 187.315 831.079 205.478 831.569C213.817 831.794 222.156 831.89 230.498 831.94C240.4 832.001 250.301 831.997 260.203 831.997L373.942 832H459.98L573.499 831.996C583.382 831.996 593.265 832.001 603.148 831.94C611.473 831.89 619.796 831.794 628.118 831.569C646.253 831.078 664.546 830.008 682.482 826.782C700.675 823.509 717.608 818.167 734.138 809.745C750.386 801.468 765.253 790.654 778.143 777.751C791.033 764.852 801.837 749.975 810.108 733.715C818.527 717.164 823.866 700.208 827.138 681.988C830.359 664.046 831.427 645.744 831.917 627.6C832.142 619.27 832.238 610.94 832.287 602.609C832.349 592.718 832.344 582.827 832.344 572.936C832.344 572.936 832.338 461.42 832.338 459.416V372.581C832.338 371.101 832.344 259.119 832.344 259.119Z" fill="black"/>
</g>
</g>
<defs>
<filter id="filter0_i_25_64" x="0.34375" y="0" width="832" height="833" filterUnits="userSpaceOnUse" color-interpolation-filters="sRGB">
<feFlood flood-opacity="0" result="BackgroundImageFix"/>
<feBlend mode="normal" in="SourceGraphic" in2="BackgroundImageFix" result="shape"/>
<feColorMatrix in="SourceAlpha" type="matrix" values="0 0 0 0 0 0 0 0 0 0 0 0 0 0 0 0 0 0 127 0" result="hardAlpha"/>
<feOffset dy="6"/>
<feGaussianBlur stdDeviation="0.5"/>
<feComposite in2="hardAlpha" operator="arithmetic" k2="-1" k3="1"/>
<feColorMatrix type="matrix" values="0 0 0 0 1 0 0 0 0 1 0 0 0 0 1 0 0 0 0.07 0"/>
<feBlend mode="normal" in2="shape" result="effect1_innerShadow_25_64"/>
</filter>
<clipPath id="clip0_25_64">
<rect width="700" height="605" fill="white" transform="translate(69 117)"/>
</clipPath>
</defs>
</svg>
