<svg width="832" height="832" viewBox="0 0 832 832" fill="none" xmlns="http://www.w3.org/2000/svg">
<mask id="mask0_191_35" style="mask-type:luminance" maskUnits="userSpaceOnUse" x="0" y="0" width="832" height="832">
<path fill-rule="evenodd" clip-rule="evenodd" d="M832 259.119C832 249.242 832.004 239.364 831.943 229.486C831.894 221.165 831.798 212.846 831.572 204.529C831.083 186.402 830.014 168.119 826.79 150.194C823.52 132.01 818.181 115.086 809.767 98.5644C801.496 82.3253 790.691 67.4655 777.799 54.5826C764.91 41.6998 750.046 30.902 733.801 22.6356C717.262 14.2197 700.321 8.88238 682.117 5.61396C664.19 2.39502 645.902 1.32776 627.775 0.838055C619.452 0.612891 611.129 0.517979 602.804 0.466484C592.921 0.405901 583.038 0.41095 573.155 0.41095L458.404 0H372.58L259.86 0.41095C249.958 0.41095 240.055 0.405901 230.153 0.466484C221.811 0.517979 213.473 0.612891 205.134 0.838055C186.964 1.32776 168.635 2.39603 150.666 5.61901C132.437 8.88641 115.47 14.2217 98.9093 22.6315C82.6299 30.899 67.7338 41.6978 54.8177 54.5826C41.9036 67.4645 31.0786 82.3213 22.792 98.5573C14.3549 115.087 9.00553 132.021 5.72804 150.215C2.50103 168.133 1.43176 186.41 0.940032 204.529C0.715878 212.847 0.618947 221.166 0.568462 229.486C0.50788 239.365 0 251.636 0 261.514L0.0030291 372.672L0 459.416L0.512928 572.936C0.512928 582.827 0.508889 592.718 0.568462 602.609C0.618947 610.941 0.715878 619.271 0.941042 627.6C1.43176 645.751 2.50305 664.06 5.73308 682.009C9.00956 700.217 14.358 717.165 22.7879 733.708C31.0756 749.971 41.9026 764.85 54.8177 777.751C67.7328 790.652 82.6249 801.463 98.9012 809.742C115.472 818.169 132.448 823.513 150.687 826.786C168.648 830.01 186.971 831.079 205.134 831.569C213.473 831.794 221.812 831.89 230.154 831.94C240.056 832.001 249.958 831.997 259.86 831.997L373.599 832H459.636L573.155 831.996C583.038 831.996 592.921 832.001 602.804 831.94C611.129 831.89 619.452 831.794 627.775 831.569C645.909 831.078 664.203 830.008 682.138 826.782C700.331 823.509 717.264 818.167 733.794 809.745C750.042 801.468 764.909 790.654 777.799 777.751C790.689 764.852 801.493 749.975 809.764 733.715C818.183 717.164 823.522 700.208 826.794 681.988C830.015 664.046 831.083 645.744 831.573 627.6C831.798 619.27 831.894 610.94 831.943 602.609C832.005 592.718 832 582.827 832 572.936C832 572.936 831.994 461.42 831.994 459.416V372.581C831.994 371.101 832 259.119 832 259.119" fill="white"/>
</mask>
<g mask="url(#mask0_191_35)">
<rect width="832" height="832" transform="translate(0.34375 -0.236816)" fill="#3A3B3D"/>
<g clip-path="url(#clip0_191_35)">
<path fill-rule="evenodd" clip-rule="evenodd" d="M643.828 158.408C590.136 139.896 572.903 227.976 619.159 243.76C671.582 261.688 700.423 178.09 643.828 158.408ZM647.638 254.478C647.638 272.99 650.54 335.543 646.005 348.209C641.289 360.876 638.386 343.143 638.749 388.157C639.112 444.474 643.284 589.261 635.847 623.557H629.861C618.796 572.112 631.131 403.357 626.959 365.747C624.963 348.599 623.694 358.927 619.703 348.209C614.987 335.543 618.07 272.99 618.07 254.478C608.275 249.606 602.833 249.801 590.861 232.848C571.452 205.371 579.433 146.326 635.847 146.326C678.837 146.326 715.66 219.402 647.638 254.478Z" fill="white"/>
<path fill-rule="evenodd" clip-rule="evenodd" d="M741.781 394.393C708.042 385.039 711.851 375.101 712.939 461.427C713.121 484.422 715.479 478.966 706.047 492.411C696.614 506.052 701.874 504.493 702.056 518.524L700.967 623.557C688.995 620.05 691.898 622.778 692.079 585.363L692.261 508.78C691.354 470.781 683.191 522.226 683.191 442.136C683.191 394.393 675.028 324.63 741.6 305.338L741.781 394.393Z" fill="white"/>
<path fill-rule="evenodd" clip-rule="evenodd" d="M662.331 210.048C653.08 249.801 591.768 236.94 603.74 191.925C614.08 152.367 672.489 166.787 662.331 210.048Z" fill="white"/>
<path fill-rule="evenodd" clip-rule="evenodd" d="M748.13 397.706L748.311 302.22C753.753 299.297 752.121 299.882 760.102 299.103C777.697 334.374 777.697 365.358 760.102 400.824L748.13 397.706Z" fill="white"/>
<path fill-rule="evenodd" clip-rule="evenodd" d="M480.03 533.529C480.392 530.995 479.123 531.385 477.49 528.852C476.039 526.513 477.127 527.098 474.769 523.785C472.411 520.472 469.871 517.549 467.876 514.042C466.244 511.119 466.969 511.314 465.518 509.365C463.704 507.221 462.253 506.442 461.164 504.103C457.174 495.919 452.276 492.996 450.099 489.099C444.658 479.355 443.388 480.525 439.579 473.704C437.039 469.417 433.774 466.494 429.239 458.894C426.881 454.802 423.979 454.022 420.532 446.617C419.081 443.5 414.183 439.213 411.1 433.951C409.467 430.833 406.383 427.131 404.025 424.013C399.853 418.362 403.844 421.674 397.495 413.88C392.416 407.839 393.504 408.229 390.602 404.136C388.425 400.824 384.798 397.121 382.439 393.808C378.449 387.573 372.644 380.752 371.193 378.609C369.742 376.27 370.467 376.27 368.291 373.542C366.295 371.009 362.123 366.527 360.491 363.604C357.044 358.147 361.035 363.214 354.323 354.055L339.63 333.789C337.454 329.892 335.458 328.138 332.375 324.046C330.379 321.317 330.198 319.564 325.663 313.912C322.761 310.405 319.858 307.092 317.863 303.974L310.607 293.841C307.705 290.333 307.342 287.605 304.259 284.098C298.635 277.667 300.993 280.785 296.64 274.159L281.766 254.088C279.589 251.36 275.598 246.878 274.147 244.15C271.608 239.668 265.984 234.017 262.719 229.145C258.547 222.909 256.008 214.335 251.292 220.766L271.97 251.165C273.966 254.283 276.143 257.791 278.501 261.298C279.589 263.052 280.496 265.001 281.403 266.365C282.673 268.313 284.305 269.872 285.756 271.626C288.115 274.939 286.482 274.159 292.468 281.759C295.189 285.462 295.914 288.19 298.998 292.087C301.9 295.595 304.259 298.518 306.254 302.22C308.068 305.923 311.333 308.846 313.691 312.548L328.021 333.204C329.11 334.958 328.203 335.348 329.835 338.076C332.556 341.779 334.733 343.338 337.091 348.209C340.9 355.809 343.621 355.224 348.519 363.799C350.514 367.501 353.961 370.424 355.956 373.932C361.035 382.896 359.947 379.388 363.212 384.26C365.57 387.767 366.84 390.496 369.379 394.003C370.83 395.757 372.281 397.121 373.188 399.07C377.723 407.839 380.081 407.644 381.351 411.736C383.709 418.167 388.607 419.531 390.784 424.792C391.509 426.741 390.784 426.936 393.142 429.664L399.49 437.069C402.574 441.746 398.039 438.043 404.388 445.059C408.016 448.761 410.193 451.294 412.37 455.387C414.728 459.869 417.449 461.427 420.351 465.715C422.709 468.832 423.797 472.145 427.062 475.848C435.225 485.006 430.509 480.135 434.318 486.176C436.495 489.294 440.304 492.996 442.3 496.309C447.197 504.688 443.932 499.427 449.374 506.442C451.732 509.56 460.076 520.667 460.802 523.59C462.434 528.657 468.057 533.529 471.685 537.426C476.402 542.298 480.03 533.529 480.03 533.529Z" fill="#A9C5D2"/>
<path fill-rule="evenodd" clip-rule="evenodd" d="M536.806 622.583C538.075 623.752 542.792 623.947 544.243 621.804C545.513 619.66 545.331 588.481 545.331 583.61L544.968 544.246C544.968 541.323 544.968 538.985 545.15 536.452L544.968 466.299C544.424 454.802 545.331 443.305 544.424 431.418L544.968 408.229C544.968 408.034 544.968 407.839 544.968 407.839C544.968 406.67 544.787 405.111 544.606 403.747C544.243 400.044 544.061 399.654 544.243 396.147L543.88 341.584C543.699 336.517 544.061 331.256 544.243 326.189C544.243 322.487 543.699 321.512 543.699 318.2C543.699 314.887 544.061 313.133 543.88 310.21L543.336 302.22C543.517 302.026 543.517 301.831 543.517 301.831L542.973 266.949C542.973 266.755 542.973 266.56 542.973 266.365C542.973 261.493 543.336 256.427 542.973 251.555C542.973 251.36 542.973 250.775 542.973 250.58L542.429 216.673C542.61 212.386 541.34 202.253 541.522 201.279C542.792 189.782 541.522 177.115 541.159 165.813C540.796 158.798 540.978 131.516 540.252 126.45C539.889 123.916 540.071 124.696 538.438 122.357C534.992 125.67 536.261 125.475 536.08 129.373L535.536 176.531C535.536 179.259 535.173 181.792 535.173 184.52C535.173 185.105 535.173 185.495 535.173 185.884V223.299C535.717 233.042 534.448 242.591 534.81 252.529C534.992 256.232 534.266 258.375 534.629 262.467V305.533C533.903 313.523 534.81 331.84 534.266 342.363L534.992 438.238C534.992 439.407 534.629 440.771 534.629 442.136C534.448 445.059 534.992 447.202 534.992 450.125C534.992 455.192 534.266 461.038 534.81 466.104C535.354 470.197 535.536 473.704 534.81 477.407C533.903 484.227 535.354 490.268 534.992 497.283V544.051C534.992 546.974 534.992 548.923 534.992 552.041C534.81 556.523 535.899 560.031 535.536 564.318L535.899 581.466C536.261 590.43 535.717 591.989 535.899 598.809V618.686C535.717 621.609 535.173 619.855 536.806 622.583Z" fill="white"/>
<path fill-rule="evenodd" clip-rule="evenodd" d="M542.973 622.778C544.424 621.219 545.15 616.932 543.699 615.178C541.522 612.645 529.369 613.814 525.559 613.619C524.108 613.619 523.745 613.229 521.75 613.229C519.029 613.229 517.215 613.424 514.313 613.035L507.239 612.84C502.16 613.619 504.518 613.424 499.801 613.229H470.416C468.057 613.229 469.146 613.229 466.606 613.035L455.541 613.229C454.09 613.229 455.904 613.229 454.09 613.229H453.002C453.002 613.229 452.82 613.229 452.639 613.229L440.848 612.45C433.593 612.45 400.942 611.671 396.407 612.645C394.049 613.035 392.597 612.645 392.235 612.645L385.886 612.84C384.435 612.84 385.342 612.84 383.891 612.645C383.709 612.645 383.528 612.645 383.346 612.645H367.021C365.207 612.645 365.388 612.645 363.756 612.45C361.76 612.45 363.393 612.45 361.76 612.45C360.309 612.645 361.76 612.645 359.946 612.645L358.677 612.45C358.495 612.45 358.314 612.45 358.133 612.45L337.454 612.06C326.207 611.865 305.347 611.865 293.556 612.45L213.199 612.06C207.213 612.645 200.501 612.255 194.334 612.06H182.18C177.464 612.45 173.655 612.84 168.757 612.45C165.311 612.255 164.222 613.035 161.32 612.84L139.371 613.035C137.739 613.229 137.376 613.424 135.743 613.424L130.483 613.619C130.302 613.619 130.12 613.619 130.12 613.619L117.423 613.229C115.064 613.229 115.609 613.424 113.613 613.619H84.2274C81.1437 613.619 74.6135 612.645 73.5251 615.568C72.4368 618.491 76.9716 618.686 78.7856 618.491C80.0553 618.296 81.5065 617.711 82.2321 617.906L107.809 618.881C110.167 618.881 112.706 618.881 115.246 619.075C115.971 619.27 118.33 619.465 119.055 619.465H126.492C134.836 620.245 143.725 619.66 152.25 620.05C154.064 620.05 154.427 620.44 156.059 620.44C156.241 620.44 156.422 620.44 156.604 620.44H157.873C158.78 620.44 158.962 620.44 159.869 620.245C162.227 620.05 164.041 620.245 166.762 620.245C174.38 620.634 181.999 619.855 189.436 621.024L218.822 621.414C222.268 621.609 222.631 621.414 225.896 621.414C228.799 621.414 230.612 621.609 233.333 621.609H251.473C264.17 622.193 291.924 621.609 299.724 622.193C311.877 623.168 332.193 621.804 343.802 622.583C349.063 622.973 369.923 623.363 374.277 622.778L376.816 622.388C382.258 622.778 382.077 623.363 388.244 622.973C397.314 622.388 399.672 623.947 408.923 623.168H409.83C410.011 623.168 410.193 623.168 410.193 623.168L421.439 623.363C422.527 623.363 422.527 623.363 423.434 623.557H454.634C456.992 623.363 459.35 623.557 461.709 623.557L467.876 624.142C468.057 624.142 468.239 623.947 468.42 623.947C472.955 623.947 477.853 625.116 482.206 623.947C483.657 623.557 482.388 623.752 484.201 623.557C490.006 623.168 496.536 623.752 502.522 623.947L516.852 623.557C524.471 623.168 536.806 624.337 542.973 622.778Z" fill="white"/>
<path fill-rule="evenodd" clip-rule="evenodd" d="M510.322 518.329C511.592 517.939 512.318 517.16 513.769 516.77C515.764 515.99 515.401 516.965 517.215 514.237C516.49 510.534 514.313 508.196 513.769 503.909C513.406 502.545 513.769 503.129 513.406 501.57L509.415 491.047C509.053 490.073 508.508 489.294 508.146 488.124L495.085 451.684C493.634 448.566 495.267 450.125 493.09 446.423L466.606 373.542C465.337 370.034 463.16 366.722 462.253 363.019C461.709 360.876 461.164 359.901 460.62 357.758L453.002 336.907C452.276 334.568 451.913 334.179 450.462 331.645C449.192 329.502 450.099 330.087 449.374 327.943C448.83 326.774 449.011 327.164 448.467 326.189C446.834 322.292 444.839 311.769 440.667 305.338C438.853 302.61 437.583 296.18 436.313 292.867L427.425 269.288C425.793 263.637 423.434 259.155 422.165 253.503C421.983 252.139 422.346 253.114 421.439 251.36C421.258 250.775 421.076 250.58 420.895 250.191C418.174 244.54 416.542 238.304 413.821 232.653L409.83 222.13C408.742 219.402 409.286 219.596 408.016 216.868C406.746 214.335 406.928 214.14 406.021 211.802C405.114 209.658 405.114 208.879 404.207 206.735L400.216 196.017C397.677 191.341 397.132 186.274 396.77 185.689C395.318 182.766 393.867 183.546 394.956 180.233C393.323 178.285 392.597 177.895 391.872 175.556L383.709 153.926C382.802 151.977 381.532 147.69 379.9 145.547C374.277 147.106 377.542 150.613 378.993 155.095C379.356 156.264 379.174 156.459 379.719 157.823L382.802 166.982C383.165 168.346 383.528 168.151 384.072 169.71C384.798 171.464 384.072 170.49 384.798 172.828C385.886 175.556 387.518 178.479 388.063 181.402C388.425 184.131 392.96 194.069 393.323 196.017C394.956 203.812 398.584 211.802 401.123 219.596C401.849 221.74 402.393 223.689 403.3 225.637C407.29 234.991 410.374 247.657 415.09 257.596C415.635 258.96 415.453 259.544 415.816 260.714C415.997 261.688 416.723 262.467 417.086 263.442C417.811 265.78 416.904 264.611 417.63 266.56L420.169 272.601C420.714 273.965 421.621 279.421 423.616 284.293L427.788 295.595C430.69 302.22 435.225 315.861 437.039 322.097L440.304 331.061C441.574 333.789 441.211 334.179 442.844 336.712C444.476 339.44 445.02 342.363 445.746 345.286L449.011 354.445C449.555 355.809 449.192 355.224 449.918 357.173L453.002 366.137C454.09 370.619 458.262 380.947 460.258 386.208C460.983 387.767 460.62 387.573 461.346 389.326L467.876 407.059C469.146 410.177 469.327 412.71 470.416 415.634C470.96 416.998 471.504 417.387 472.23 418.946C472.955 420.31 474.225 423.428 474.588 424.792C475.132 426.546 474.769 425.961 475.495 427.715L478.397 436.289C479.304 439.992 483.113 444.279 483.839 447.982C483.839 448.176 484.02 449.151 484.202 449.346C484.564 450.515 484.383 449.93 484.927 450.905C486.015 453.633 485.29 452.074 485.834 454.022C486.197 454.997 485.653 453.828 486.378 455.192L487.829 459.868C488.374 461.038 488.918 461.817 489.281 462.791C490.188 464.74 489.281 463.766 490.188 465.909C490.55 467.079 491.276 467.468 491.639 468.638C492.364 470.196 491.457 469.417 492.546 471.755C494.541 476.237 493.09 474.289 494.178 477.212L496.899 483.253C498.169 485.591 497.988 486.565 498.532 488.904C499.257 491.632 499.62 492.217 500.708 494.945C501.978 497.868 502.341 500.791 503.792 503.714C505.787 507.221 504.518 506.637 505.787 509.365C507.42 513.067 507.601 515.796 510.322 518.329Z" fill="#A9C5D2"/>
<path fill-rule="evenodd" clip-rule="evenodd" d="M194.152 369.06L217.371 389.521C220.273 391.275 222.268 392.639 225.352 395.562C228.436 398.68 230.431 399.654 233.152 402.188C236.961 405.5 241.315 410.372 244.761 412.516C249.115 414.854 255.101 422.259 256.915 423.233C258.728 424.403 258.728 423.038 264.533 428.3C267.617 431.223 269.249 433.756 272.696 435.705C275.417 437.264 277.593 439.018 280.314 441.941L304.258 461.622C317.137 472.535 330.742 482.473 343.44 493.386L351.602 499.427C354.142 501.765 356.863 504.688 359.402 506.832C362.486 509.56 364.481 509.95 367.384 512.873C375.546 520.862 375.546 519.498 383.528 526.513C389.695 531.775 387.7 529.631 391.328 532.359C394.049 534.698 396.588 537.621 399.49 539.764C405.839 544.636 404.569 543.467 411.1 549.508C412.732 550.872 413.458 551.067 415.09 552.041L430.872 564.513C434.318 567.825 435.588 569.384 439.034 571.528C445.746 575.815 445.564 580.297 450.281 575.035C454.453 570.359 452.095 569.384 445.927 564.318L423.253 545.805C421.258 544.051 417.993 540.544 415.816 539.18L400.579 526.903C398.039 525.344 395.318 522.811 392.779 520.278L377.904 508.196C369.923 502.545 365.57 496.893 362.667 494.945L347.793 483.642C345.072 481.304 342.714 478.771 339.993 476.432C337.816 474.678 335.095 473.509 332.375 471.171L295.007 441.161C288.296 434.536 265.44 417.777 256.915 410.762C253.831 408.034 252.017 407.449 249.296 405.111C242.584 399.459 240.045 398.095 234.24 392.834C228.798 387.767 229.161 389.521 226.622 386.988C224.082 384.65 221.361 381.337 218.64 379.388C216.101 377.634 213.38 377.05 211.385 373.737L209.752 373.347C209.571 373.347 209.389 373.347 209.208 373.152C209.208 373.152 207.938 372.373 207.394 372.178C202.859 369.645 201.589 366.332 197.054 363.409C191.068 359.317 190.343 357.953 186.896 355.809C185.989 355.03 184.72 354.64 183.631 353.86C179.822 351.132 178.552 348.209 172.929 345.481L170.027 343.143C167.487 340.609 165.673 338.856 162.771 336.907C161.501 336.127 160.594 335.738 159.506 334.763C159.143 334.568 158.055 333.789 157.692 333.594C156.241 333.01 157.329 333.01 155.878 333.594C155.515 335.738 154.79 334.179 156.966 336.517C160.594 340.609 170.39 348.014 174.38 351.717C177.464 354.64 181.273 358.537 184.538 361.265C187.441 363.604 189.799 364.383 194.152 369.06Z" fill="#A9C5D2"/>
<path fill-rule="evenodd" clip-rule="evenodd" d="M100.371 472.73C100.553 473.12 99.8273 472.34 100.916 473.704L107.083 477.017C107.99 477.407 108.897 477.601 109.804 477.991C110.711 478.381 111.074 478.771 112.162 479.16L116.697 481.499C119.236 482.863 121.776 483.253 124.134 484.422C125.222 485.006 125.404 485.396 126.492 485.786L136.65 490.463C137.739 491.047 138.283 491.047 139.371 491.437C142.999 493.191 153.701 498.842 156.241 499.232C160.05 500.206 164.948 502.155 168.394 504.298C170.752 505.662 180.366 508.975 183.269 510.924C185.989 512.873 189.98 514.237 193.064 515.601C194.878 516.38 193.789 515.796 195.422 516.38C196.692 516.77 196.873 517.16 198.143 517.549C202.859 519.108 208.12 522.031 212.836 523.98C213.924 524.565 214.106 524.37 215.194 524.954L227.529 530.021C229.524 530.606 230.431 531.775 232.245 532.164C234.24 532.554 235.329 533.529 237.324 534.113L261.812 545.221C262.901 545.61 263.082 545.805 264.17 546.195L266.891 547.364C267.98 547.949 269.249 549.313 270.338 549.508L281.403 553.99C282.31 554.379 282.854 554.769 283.761 554.964C286.845 555.938 290.654 558.666 293.738 559.446C295.733 559.836 296.64 561.005 298.817 561.395C301.538 561.784 312.784 567.046 315.868 568.605C320.765 570.943 325.482 572.892 330.742 574.646C332.556 575.23 333.826 576.399 335.821 577.179C338.723 578.153 342.533 578.738 345.254 580.297C346.342 580.881 346.523 581.076 347.793 581.661C350.333 582.635 353.053 583.025 355.049 583.999L357.407 585.169C358.858 585.558 358.133 585.168 359.765 586.338C361.942 587.702 362.305 587.117 364.844 588.481C367.565 590.235 370.649 590.235 373.551 591.794C375.728 593.158 374.277 591.794 378.267 593.938C379.718 594.717 380.444 594.132 381.895 595.107C384.253 596.666 384.797 596.276 386.974 597.445C391.69 599.978 398.221 601.732 401.667 603.876L406.746 606.019C408.379 606.604 408.016 606.019 409.467 606.799C411.825 607.968 412.188 609.137 414.727 607.968C415.997 606.409 416.179 603.681 415.634 602.122C414.546 598.614 408.197 597.445 405.295 596.081C403.844 595.496 403.481 595.691 402.574 595.302C401.304 594.522 401.123 594.132 399.853 593.548C397.495 592.768 399.309 593.938 397.132 592.768L372.825 582.44C369.923 580.881 367.384 580.297 364.663 579.128C363.393 578.738 361.942 577.374 360.491 577.179C358.133 576.594 354.142 573.866 351.24 572.892L345.979 571.138C344.891 570.748 344.347 569.969 343.258 569.579C342.714 569.384 340.719 568.8 340.537 568.605C340.174 568.605 339.63 568.215 339.086 568.02L334.733 565.487C333.463 566.071 334.914 566.461 332.919 565.682C330.379 564.902 322.579 560.42 320.04 559.836C315.323 558.861 318.044 558.277 314.235 556.913C311.696 555.938 309.337 555.159 306.798 553.795L292.105 547.559C291.017 546.974 289.928 546.78 288.477 546.195C286.663 545.415 286.3 545.61 284.849 544.831L282.673 544.051C279.407 542.882 277.775 541.128 273.603 539.959L266.347 537.036C264.352 536.062 264.17 536.062 262.538 535.282C260.361 534.308 257.459 532.944 255.101 532.164C252.924 531.385 250.022 530.216 247.663 529.436C245.124 528.657 246.757 530.216 244.217 528.657C243.31 528.072 243.31 527.877 242.584 527.488C240.589 526.513 241.677 527.293 240.408 526.708C238.957 526.124 238.231 525.539 236.78 524.954C234.603 524.175 234.784 523.59 232.971 522.811L225.715 520.083C224.989 519.888 224.626 519.693 223.901 519.303C222.994 518.913 222.994 519.108 221.906 518.524L210.84 513.652C208.845 512.678 209.389 513.457 207.213 512.288L188.71 505.078C185.989 503.129 187.441 504.493 185.082 503.519C184.357 503.324 183.994 502.934 183.269 502.739C182.18 502.155 182.18 502.35 181.273 502.155C179.278 501.375 179.822 500.986 177.645 500.596C175.65 500.206 174.199 499.427 172.204 498.452L155.515 491.632C153.52 491.242 153.701 491.047 151.887 490.268C148.441 489.099 143.543 487.929 140.822 486.371C138.827 485.201 139.19 484.422 137.013 484.032L127.943 480.719C127.036 480.33 126.855 480.135 125.948 479.745L107.446 472.925C104.725 472.34 102.004 469.417 100.371 472.73Z" fill="#A9C5D2"/>
<path fill-rule="evenodd" clip-rule="evenodd" d="M329.472 416.803L451.551 547.949C457.537 554.379 457.174 553.015 460.258 548.728C461.346 546.974 462.434 545.805 462.797 544.051C451.188 530.216 430.69 512.093 416.904 496.309L376.453 453.828C374.821 452.269 373.007 451.099 371.556 449.735L322.761 400.629C320.947 398.875 319.496 396.731 317.682 395.562C314.961 393.808 314.054 393.224 312.966 394.978C310.789 398.29 316.593 402.577 319.314 405.695C322.761 409.398 326.207 413.1 329.472 416.803Z" fill="white"/>
<path fill-rule="evenodd" clip-rule="evenodd" d="M436.495 601.148C438.671 599.394 439.941 597.64 440.485 595.302C441.211 592.379 439.76 591.404 437.22 590.235C433.592 588.871 434.318 588.286 431.234 586.338C428.876 584.779 431.416 587.117 425.43 583.025C423.979 582.051 423.797 582.245 422.527 581.661C421.802 581.271 420.351 580.297 419.625 579.907C417.086 578.348 416.36 578.153 413.639 576.205C410.918 574.061 410.374 574.84 408.016 573.476L390.239 561.784C386.43 559.836 390.058 562.369 384.253 558.277C382.258 556.913 380.988 556.913 378.449 555.354C375.002 553.21 370.286 551.456 366.658 548.728C365.388 547.754 365.207 547.169 363.756 546.78C360.309 545.415 363.574 547.559 358.132 544.051L337.454 531.58C335.64 530.8 336.002 531.19 334.551 530.411C333.463 529.826 332.737 529.047 331.649 528.267C327.114 525.734 317.319 521.057 313.872 518.524C309.337 515.016 311.514 517.549 308.068 515.406C307.161 514.821 306.435 514.042 305.165 513.457C304.258 512.873 303.351 512.678 302.263 511.898C297.728 508.975 300.631 509.755 296.458 508.391L278.863 499.232C276.324 498.063 275.235 496.309 272.877 495.334C271.426 494.555 271.97 495.14 269.975 493.97C265.44 491.437 257.096 485.396 256.189 489.488C255.282 492.801 264.714 496.309 266.71 497.868L278.319 504.688C280.859 505.662 281.584 507.221 284.124 508.585C286.845 509.949 287.752 511.119 290.11 512.678C292.468 514.042 293.375 513.847 295.914 515.796C298.998 518.329 299.179 517.549 301.719 519.303C306.617 522.616 306.435 522.031 310.607 525.149C313.328 527.293 312.058 525.929 313.691 526.318L325.119 533.723C327.658 535.477 328.384 534.698 330.923 537.036C334.733 540.349 334.37 538.985 336.909 540.544C338.179 541.323 338.723 541.908 339.812 542.687C342.533 544.441 340.719 542.882 342.714 544.051C344.347 544.831 346.886 547.364 348.7 548.338C353.416 550.872 352.872 551.067 354.686 552.236C356.5 553.21 355.956 552.431 357.407 553.21C358.677 553.795 359.221 554.769 360.491 555.549L369.197 560.225C370.83 561.005 370.104 560.42 372.1 562.174C373.188 562.954 373.732 563.538 375.002 564.513C376.272 565.292 376.997 565.487 378.086 565.877C380.081 567.046 381.895 569.189 384.072 570.164C385.16 570.748 385.342 570.553 386.974 571.528C388.062 572.307 388.607 572.892 389.876 573.671L401.486 580.297C403.481 581.466 405.839 582.245 407.29 583.415C410.374 585.948 410.374 585.948 413.458 587.507C419.988 591.015 422.346 593.548 425.248 595.302C426.155 595.886 426.881 595.886 428.151 596.471C431.96 599.004 427.606 597.64 433.955 599.784C435.044 600.173 435.406 600.563 436.495 601.148Z" fill="white"/>
<path fill-rule="evenodd" clip-rule="evenodd" d="M526.648 499.232C527.736 501.375 530.094 511.703 530.638 514.626C531.001 516.38 531.727 516.77 532.09 518.329C532.271 519.303 532.09 518.913 532.271 520.083L534.266 529.436C535.899 531.385 542.61 529.631 541.341 523.006L535.355 498.063C535.173 496.504 535.173 496.309 534.811 494.945C533.178 489.683 532.271 488.319 532.997 485.201C531.908 482.473 533.722 485.396 531.908 480.33C531.183 478.381 531.545 479.355 531.001 477.601C529.731 473.509 529.369 468.638 527.918 463.766L517.759 423.233C517.034 421.09 517.215 422.454 516.853 420.505C516.308 417.972 516.308 417.192 515.764 415.049L510.322 393.224C507.601 383.091 502.885 362.435 500.346 355.03L496.355 339.05C495.267 333.789 493.09 329.502 492.183 322.487C492.183 321.512 490.369 314.107 489.281 312.938C486.922 310.405 491.82 314.497 488.192 312.354C487.648 311.964 484.927 312.159 486.016 317.03L491.095 340.609C491.82 342.948 492.183 344.117 492.546 346.455C492.727 348.209 493.453 350.548 493.815 352.496L499.801 380.362C500.164 381.337 500.164 381.337 500.527 382.116L501.615 387.767C501.797 389.911 501.797 391.86 502.341 393.613L509.778 425.572C510.504 429.079 510.685 427.326 511.048 431.418C511.229 432.977 511.411 433.172 511.773 434.731C512.136 436.874 512.499 438.628 513.043 440.577L514.313 446.423C515.039 448.956 515.401 450.125 515.583 452.464C516.308 456.361 517.759 460.648 518.304 464.545L518.485 465.325C518.666 466.494 518.485 466.104 518.666 466.884C519.573 469.027 519.936 469.222 520.843 472.925L525.378 493.775C526.104 495.919 526.648 497.868 526.648 499.232Z" fill="white"/>
<path fill-rule="evenodd" clip-rule="evenodd" d="M436.676 433.756C438.309 435.705 438.853 437.654 439.76 439.407L446.471 451.294C449.374 456.945 452.095 463.766 455.36 469.027C460.983 477.991 456.811 472.145 461.708 480.719L470.597 498.452C471.322 500.206 472.774 502.35 473.862 504.298L484.383 522.226C486.378 526.708 488.373 530.995 494.359 523.201L490.732 515.406C488.736 511.314 488.373 512.678 486.197 507.026L481.843 498.842C480.755 497.088 480.211 496.309 479.122 494.75C477.853 492.996 478.034 492.411 477.308 490.463C476.401 488.709 475.676 488.124 474.587 486.371C473.499 484.812 473.681 484.032 472.592 482.083C471.685 480.719 470.778 479.745 470.053 478.186C468.783 475.848 469.871 476.627 467.876 473.704C464.792 469.222 461.164 459.868 458.988 457.335C453.909 451.099 457.899 455.387 454.271 448.956C453.183 447.397 453.002 446.617 452.457 445.253C451.732 443.5 451.006 442.33 450.281 440.966C448.104 437.069 444.839 431.808 443.569 428.69C442.843 426.546 442.299 426.546 441.03 424.403C439.216 420.895 441.392 422.844 436.495 416.023C435.406 414.464 435.044 413.49 434.499 412.126L427.244 399.459C426.518 398.29 426.155 396.926 425.43 395.562C424.704 394.393 423.434 392.639 423.072 391.86C419.806 388.157 416.904 380.752 413.82 376.075C411.462 372.957 412.006 371.983 409.83 368.865C405.114 361.655 408.197 366.137 405.658 361.46L391.69 336.907C391.328 336.127 391.328 335.933 390.783 335.153C389.332 333.204 388.607 332.62 386.974 332.425L420.895 401.993C421.983 404.721 423.434 405.305 424.341 408.423C425.792 412.321 430.871 420.115 432.504 424.013C433.592 426.936 436.858 429.469 436.676 433.756Z" fill="white"/>
<path fill-rule="evenodd" clip-rule="evenodd" d="M535.536 545.61C511.955 542.687 463.16 579.517 470.234 611.671C470.96 612.645 471.504 614.009 471.504 615.373C471.867 619.27 469.327 622.583 465.699 622.973C436.313 622.778 477.853 524.759 538.62 531.97C542.066 532.944 544.243 536.646 543.336 540.349C542.61 544.051 538.983 546.39 535.536 545.61Z" fill="white"/>
<path d="M73.2294 695.824L89.7717 658.709H98.255L114.85 695.824H105.837L92.2637 663.057H95.657L82.0308 695.824H73.2294ZM81.5006 687.871L83.7804 681.349H102.868L105.201 687.871H81.5006ZM134.414 696.46C129.147 696.46 125.029 694.993 122.06 692.059C119.091 689.125 117.606 684.937 117.606 679.493V658.709H126.196V679.175C126.196 682.71 126.92 685.255 128.369 686.81C129.819 688.365 131.851 689.143 134.467 689.143C137.082 689.143 139.115 688.365 140.564 686.81C142.013 685.255 142.738 682.71 142.738 679.175V658.709H151.221V679.493C151.221 684.937 149.737 689.125 146.768 692.059C143.798 694.993 139.68 696.46 134.414 696.46ZM159.709 695.824V658.709H176.57C180.599 658.709 184.152 659.487 187.227 661.042C190.302 662.562 192.705 664.701 194.437 667.458C196.169 670.215 197.035 673.484 197.035 677.267C197.035 681.013 196.169 684.283 194.437 687.075C192.705 689.832 190.302 691.989 187.227 693.544C184.152 695.064 180.599 695.824 176.57 695.824H159.709ZM168.298 688.772H176.145C178.62 688.772 180.758 688.312 182.561 687.393C184.399 686.439 185.813 685.096 186.803 683.364C187.828 681.632 188.34 679.599 188.34 677.267C188.34 674.898 187.828 672.866 186.803 671.169C185.813 669.437 184.399 668.112 182.561 667.193C180.758 666.238 178.62 665.761 176.145 665.761H168.298V688.772ZM203.513 695.824V658.709H212.102V695.824H203.513ZM238.937 696.46C236.004 696.46 233.282 695.983 230.772 695.028C228.298 694.074 226.142 692.731 224.304 690.999C222.501 689.267 221.087 687.234 220.062 684.901C219.072 682.569 218.578 680.024 218.578 677.267C218.578 674.509 219.072 671.964 220.062 669.632C221.087 667.299 222.519 665.266 224.357 663.534C226.195 661.802 228.351 660.459 230.825 659.505C233.3 658.55 235.986 658.073 238.884 658.073C241.818 658.073 244.505 658.55 246.943 659.505C249.418 660.459 251.556 661.802 253.359 663.534C255.197 665.266 256.629 667.299 257.654 669.632C258.679 671.929 259.191 674.474 259.191 677.267C259.191 680.024 258.679 682.586 257.654 684.955C256.629 687.287 255.197 689.32 253.359 691.052C251.556 692.749 249.418 694.074 246.943 695.028C244.505 695.983 241.836 696.46 238.937 696.46ZM238.884 689.143C240.546 689.143 242.066 688.86 243.444 688.295C244.858 687.729 246.095 686.916 247.156 685.856C248.216 684.795 249.029 683.541 249.594 682.091C250.195 680.642 250.496 679.034 250.496 677.267C250.496 675.499 250.195 673.891 249.594 672.442C249.029 670.992 248.216 669.738 247.156 668.677C246.13 667.617 244.911 666.804 243.497 666.238C242.083 665.673 240.546 665.39 238.884 665.39C237.223 665.39 235.685 665.673 234.272 666.238C232.893 666.804 231.674 667.617 230.613 668.677C229.553 669.738 228.722 670.992 228.121 672.442C227.556 673.891 227.273 675.499 227.273 677.267C227.273 678.999 227.556 680.607 228.121 682.091C228.722 683.541 229.535 684.795 230.56 685.856C231.621 686.916 232.858 687.729 234.272 688.295C235.685 688.86 237.223 689.143 238.884 689.143ZM280.662 695.824V658.709H287.767L303.567 684.901H299.802L315.337 658.709H322.389L322.495 695.824H314.436L314.383 671.063H315.868L303.461 691.9H299.59L286.918 671.063H288.721V695.824H280.662ZM326.423 695.824L342.965 658.709H351.448L368.044 695.824H359.03L345.457 663.057H348.85L335.224 695.824H326.423ZM334.694 687.871L336.974 681.349H356.061L358.394 687.871H334.694ZM389.298 696.46C386.364 696.46 383.66 696 381.185 695.081C378.747 694.127 376.608 692.784 374.77 691.052C372.967 689.32 371.553 687.287 370.528 684.955C369.539 682.622 369.044 680.059 369.044 677.267C369.044 674.474 369.539 671.911 370.528 669.579C371.553 667.246 372.985 665.213 374.823 663.481C376.661 661.749 378.817 660.424 381.292 659.505C383.766 658.55 386.488 658.073 389.457 658.073C392.744 658.073 395.695 658.621 398.311 659.717C400.962 660.813 403.189 662.403 404.992 664.489L399.478 669.579C398.134 668.165 396.667 667.122 395.077 666.45C393.486 665.743 391.754 665.39 389.881 665.39C388.078 665.39 386.435 665.673 384.95 666.238C383.465 666.804 382.175 667.617 381.079 668.677C380.019 669.738 379.188 670.992 378.587 672.442C378.022 673.891 377.739 675.499 377.739 677.267C377.739 678.999 378.022 680.589 378.587 682.038C379.188 683.488 380.019 684.76 381.079 685.856C382.175 686.916 383.448 687.729 384.897 688.295C386.382 688.86 388.007 689.143 389.775 689.143C391.471 689.143 393.115 688.878 394.706 688.348C396.332 687.782 397.905 686.846 399.425 685.538L404.302 691.741C402.288 693.261 399.937 694.427 397.251 695.24C394.6 696.053 391.949 696.46 389.298 696.46ZM396.455 690.628V676.683H404.302V691.741L396.455 690.628ZM412.281 695.824V658.709H420.871V695.824H412.281ZM441.873 696.46C438.904 696.46 436.059 696.071 433.337 695.293C430.615 694.481 428.424 693.438 426.762 692.165L429.679 685.697C431.269 686.828 433.143 687.765 435.299 688.507C437.49 689.214 439.699 689.567 441.926 689.567C443.623 689.567 444.984 689.408 446.009 689.09C447.069 688.737 447.847 688.259 448.342 687.659C448.837 687.058 449.084 686.368 449.084 685.591C449.084 684.601 448.695 683.823 447.918 683.258C447.14 682.657 446.115 682.18 444.842 681.826C443.57 681.437 442.156 681.084 440.601 680.766C439.081 680.412 437.543 679.988 435.988 679.493C434.468 678.999 433.072 678.362 431.799 677.585C430.527 676.807 429.484 675.782 428.671 674.509C427.894 673.237 427.505 671.611 427.505 669.632C427.505 667.511 428.07 665.584 429.201 663.852C430.368 662.085 432.1 660.689 434.397 659.664C436.73 658.603 439.646 658.073 443.146 658.073C445.479 658.073 447.776 658.356 450.038 658.921C452.301 659.452 454.298 660.265 456.03 661.36L453.379 667.882C451.647 666.892 449.915 666.168 448.183 665.708C446.451 665.213 444.754 664.966 443.093 664.966C441.431 664.966 440.071 665.16 439.01 665.549C437.95 665.938 437.19 666.45 436.73 667.087C436.271 667.688 436.041 668.394 436.041 669.207C436.041 670.162 436.43 670.939 437.207 671.54C437.985 672.106 439.01 672.565 440.283 672.919C441.555 673.272 442.951 673.626 444.471 673.979C446.027 674.333 447.564 674.739 449.084 675.199C450.639 675.658 452.053 676.277 453.326 677.054C454.598 677.832 455.623 678.857 456.401 680.13C457.214 681.402 457.62 683.01 457.62 684.955C457.62 687.04 457.037 688.949 455.871 690.681C454.704 692.413 452.955 693.809 450.622 694.869C448.324 695.93 445.408 696.46 441.873 696.46ZM470.66 695.824V665.708H458.783V658.709H491.126V665.708H479.249V695.824H470.66ZM503.647 673.661H521.515V680.342H503.647V673.661ZM504.283 688.931H524.484V695.824H495.747V658.709H523.795V665.602H504.283V688.931ZM531.318 695.824V658.709H547.384C550.706 658.709 553.569 659.257 555.973 660.353C558.376 661.413 560.232 662.951 561.54 664.966C562.848 666.981 563.502 669.384 563.502 672.177C563.502 674.934 562.848 677.32 561.54 679.334C560.232 681.314 558.376 682.834 555.973 683.894C553.569 684.955 550.706 685.485 547.384 685.485H536.09L539.908 681.72V695.824H531.318ZM554.912 695.824L545.634 682.357H554.806L564.191 695.824H554.912ZM539.908 682.675L536.09 678.645H546.906C549.557 678.645 551.537 678.08 552.845 676.948C554.152 675.782 554.806 674.191 554.806 672.177C554.806 670.126 554.152 668.536 552.845 667.405C551.537 666.274 549.557 665.708 546.906 665.708H536.09L539.908 661.625V682.675Z" fill="white"/>
</g>
<g style="mix-blend-mode:screen" filter="url(#filter0_i_191_35)">
<path fill-rule="evenodd" clip-rule="evenodd" d="M832.344 259.119C832.344 249.242 832.348 239.364 832.287 229.486C832.238 221.165 832.142 212.846 831.916 204.529C831.427 186.402 830.358 168.119 827.134 150.194C823.864 132.01 818.525 115.086 810.111 98.5644C801.84 82.3253 791.035 67.4655 778.143 54.5826C765.254 41.6998 750.39 30.902 734.145 22.6356C717.606 14.2197 700.664 8.88238 682.461 5.61396C664.533 2.39502 646.246 1.32776 628.118 0.838055C619.796 0.612891 611.473 0.517979 603.148 0.466484C593.265 0.405901 583.382 0.41095 573.499 0.41095L458.748 0H372.924L260.203 0.41095C250.301 0.41095 240.399 0.405901 230.497 0.466484C222.155 0.517979 213.817 0.612891 205.478 0.838055C187.308 1.32776 168.979 2.39603 151.009 5.61901C132.781 8.88641 115.814 14.2217 99.2531 22.6315C82.9737 30.899 68.0775 41.6978 55.1614 54.5826C42.2474 67.4645 31.4224 82.3213 23.1357 98.5573C14.6987 115.087 9.34928 132.021 6.07179 150.215C2.84478 168.133 1.77551 186.41 1.28378 204.529C1.05963 212.847 0.962697 221.166 0.912212 229.486C0.85163 239.365 0.34375 251.636 0.34375 261.514L0.346779 372.672L0.34375 459.416L0.856678 572.936C0.856678 582.827 0.852639 592.718 0.912212 602.609C0.962697 610.941 1.05963 619.271 1.28479 627.6C1.77551 645.751 2.8468 664.06 6.07683 682.009C9.35331 700.217 14.7017 717.165 23.1317 733.708C31.4193 749.971 42.2464 764.85 55.1614 777.751C68.0765 790.652 82.9686 801.463 99.245 809.742C115.816 818.169 132.791 823.513 151.031 826.786C168.992 830.01 187.315 831.079 205.478 831.569C213.817 831.794 222.156 831.89 230.498 831.94C240.4 832.001 250.301 831.997 260.203 831.997L373.942 832H459.98L573.499 831.996C583.382 831.996 593.265 832.001 603.148 831.94C611.473 831.89 619.796 831.794 628.118 831.569C646.253 831.078 664.546 830.008 682.482 826.782C700.675 823.509 717.608 818.167 734.138 809.745C750.386 801.468 765.253 790.654 778.143 777.751C791.033 764.852 801.837 749.975 810.108 733.715C818.527 717.164 823.866 700.208 827.138 681.988C830.359 664.046 831.427 645.744 831.917 627.6C832.142 619.27 832.238 610.94 832.287 602.609C832.349 592.718 832.344 582.827 832.344 572.936C832.344 572.936 832.338 461.42 832.338 459.416V372.581C832.338 371.101 832.344 259.119 832.344 259.119Z" fill="black"/>
</g>
</g>
<defs>
<filter id="filter0_i_191_35" x="0.34375" y="0" width="832" height="833" filterUnits="userSpaceOnUse" color-interpolation-filters="sRGB">
<feFlood flood-opacity="0" result="BackgroundImageFix"/>
<feBlend mode="normal" in="SourceGraphic" in2="BackgroundImageFix" result="shape"/>
<feColorMatrix in="SourceAlpha" type="matrix" values="0 0 0 0 0 0 0 0 0 0 0 0 0 0 0 0 0 0 127 0" result="hardAlpha"/>
<feOffset dy="6"/>
<feGaussianBlur stdDeviation="0.5"/>
<feComposite in2="hardAlpha" operator="arithmetic" k2="-1" k3="1"/>
<feColorMatrix type="matrix" values="0 0 0 0 1 0 0 0 0 1 0 0 0 0 1 0 0 0 0.07 0"/>
<feBlend mode="normal" in2="shape" result="effect1_innerShadow_191_35"/>
</filter>
<clipPath id="clip0_191_35">
<rect width="700" height="605" fill="white" transform="translate(73.3438 122)"/>
</clipPath>
</defs>
</svg>
